<?xml version="1.0" standalone="no"?><svg xmlns="http://www.w3.org/2000/svg" viewBox="0 0 1440 320"><path fill="#dee2e6" fill-opacity="1" d="M0,160L34.3,154.7C68.6,149,137,139,206,112C274.3,85,343,43,411,53.3C480,64,549,128,617,149.3C685.7,171,754,149,823,160C891.4,171,960,213,1029,224C1097.1,235,1166,213,1234,186.7C1302.9,160,1371,128,1406,112L1440,96L1440,0L1405.7,0C1371.4,0,1303,0,1234,0C1165.7,0,1097,0,1029,0C960,0,891,0,823,0C754.3,0,686,0,617,0C548.6,0,480,0,411,0C342.9,0,274,0,206,0C137.1,0,69,0,34,0L0,0Z"></path></svg>